Coordinates
version=1
nRows=9
nColumns=36
inDegrees=yes

Units are S.I. units (second, meters, Newtons, ...)
If the header above contains a line with 'inDegrees', this indicates whether rotational values are in degrees (yes) or radians (no).

endheader
time	pelvis_tilt	pelvis_list	pelvis_rotation	pelvis_tx	pelvis_ty	pelvis_tz	hip_flexion_r	hip_adduction_r	hip_rotation_r	knee_angle_r	knee_angle_r_beta	ankle_angle_r	subtalar_angle_r	mtp_angle_r	hip_flexion_l	hip_adduction_l	hip_rotation_l	knee_angle_l	knee_angle_l_beta	ankle_angle_l	subtalar_angle_l	mtp_angle_l	lumbar_extension	lumbar_bending	lumbar_rotation	arm_flex_r	arm_add_r	arm_rot_r	elbow_flex_r	pro_sup_r	arm_flex_l	arm_add_l	arm_rot_l	elbow_flex_l	pro_sup_l
      3.50416670	    -24.57954992	      0.54323790	      5.06687279	     -0.99518751	      1.13644832	     -0.07125445	     56.79511953	     -3.21636697	      4.76803711	     68.61737668	      1.19759915	     26.32412450	    -26.01480125	     -7.49999987	     56.45620246	      5.23072813	      9.05777070	     67.87948027	      1.18472043	     30.87772925	     -7.21127627	     -7.49999987	    -20.23220616	      2.23090221	     -4.32212555	     23.32511959	    -11.05040094	     20.04585282	     57.68155407	     81.94951093	     32.86117133	    -16.79422597	     22.08700966	     61.22298056	     64.61236615
      3.50833330	    -24.53831028	      0.50464813	      4.66295804	     -0.99564122	      1.12877287	     -0.07081980	     56.97240345	     -2.83619916	      5.12770125	     69.43111137	      1.21180150	     27.08700594	    -26.26501754	     -7.49999987	     56.82970588	      5.07571866	      8.80677178	     69.38571694	      1.21100921	     31.58570243	     -7.09920188	     -7.49999987	    -20.43205335	      2.26590058	     -3.96115835	     24.24934289	    -10.82383042	     20.34714642	     56.87664115	     81.07056805	     34.38163935	    -16.56769084	     20.76392286	     59.80823051	     64.25693007
      3.51250000	    -24.51253317	      0.61996052	      4.52407253	     -0.99554427	      1.12869307	     -0.07063519	     57.04619826	     -2.75854627	      5.47581594	     70.05740390	      1.22273236	     26.85935400	    -27.29911589	     -7.49999987	     56.97314148	      5.26798384	      8.82328367	     70.10121292	      1.22349698	     31.38900043	     -7.38655722	     -7.49999987	    -20.52013242	      1.97971046	     -3.85287326	     25.27222364	    -10.37866017	     21.19199007	     55.55007375	     81.29018673	     35.79740764	    -16.33335506	     19.71709183	     57.95137247	     64.07266484
      3.51666670	    -24.22643851	      0.63071448	      4.36149492	     -0.98933005	      1.12890806	     -0.06622207	     56.36308168	     -2.38470797	      5.73136899	     70.01992460	      1.22207823	     27.47479714	    -27.31575205	     -7.49999987	     56.65692500	      5.18791550	      9.02082105	     70.65113702	      1.23309496	     31.40418368	     -7.49616278	     -7.49999987	    -20.91825306	      1.68778738	     -4.11523200	     26.13230683	     -9.57682997	     22.19930411	     53.83837318	     81.54441644	     37.15644670	    -16.89283526	     19.66733498	     55.72046758	     63.81135686
      3.52083330	    -23.93193626	      0.88734908	      4.35429087	     -0.98333119	      1.12465555	     -0.07101957	     55.88765868	     -2.33097250	      6.30324480	     70.60304809	      1.23225565	     28.03945870	    -27.60729632	     -7.49999987	     56.41831440	      5.61747782	      9.00806941	     71.51607592	      1.24819099	     31.76573117	     -8.05992784	     -7.49999987	    -21.35492134	      1.30749371	     -4.35455295	     26.77865001	     -9.30826808	     22.98352916	     53.90981896	     81.66670390	     37.82158280	    -17.22146778	     19.69510875	     54.65751099	     63.67740716
      3.52500000	    -23.45284582	      1.11743318	      4.21623910	     -0.97750477	      1.12518759	     -0.06643494	     55.27136035	     -1.86285868	      6.90907527	     71.15786898	      1.24193910	     28.30915762	    -28.40682548	     -7.49999987	     55.54648603	      5.75399395	      9.06617307	     71.62401801	      1.25007494	     31.85606144	     -8.94814475	     -7.49999987	    -21.89535828	      0.80576903	     -4.43492115	     27.06143856	     -9.03559752	     24.01535091	     53.77220143	     81.75398526	     38.27427491	    -17.51782920	     19.98390464	     53.38500604	     63.49634343
      3.52916670	    -23.31845041	      1.09682517	      4.15848407	     -0.97743240	      1.12195643	     -0.06632207	     55.30235641	     -1.38014552	      7.18415164	     71.95085082	      1.25577925	     29.81336404	    -28.05977654	     -7.49999987	     55.55689564	      5.59827782	      8.93558602	     72.23930115	      1.26081365	     32.07186801	     -9.27150338	     -7.49999987	    -22.30633396	      0.78607389	     -4.33754834	     26.88920402	     -9.04022607	     24.11790383	     54.72165064	     80.47517910	     38.29006862	    -17.71264405	     19.89211768	     54.00544586	     63.21455168
      3.53333330	    -23.53911640	      1.02156245	      4.00853479	     -0.97173603	      1.11417469	     -0.06154474	     55.70001133	     -0.57166216	      7.55310085	     72.91864917	      1.27267051	     30.23449649	    -28.84779692	     -7.49999987	     55.96708045	      5.17662518	      8.81797515	     73.14226397	      1.27657333	     32.85628906	     -8.96008094	     -7.49999987	    -21.80298108	      0.35862661	     -4.40424900	     26.46324561	     -8.80755113	     25.22755400	     55.58287817	     78.64141980	     38.39649717	    -18.10900273	     20.39597556	     53.49452496	     62.72349914
      3.53750000	    -23.30788083	      0.87746275	      3.96717241	     -0.97150535	      1.11467086	     -0.06210990	     55.77349643	     -0.10579514	      7.51265710	     73.81196849	      1.28826188	     30.91755609	    -28.60569193	     -7.49999987	     56.13718630	      4.81241974	      8.61033546	     74.13344855	      1.29387276	     33.02310696	     -9.09787338	     -7.49999987	    -22.47041314	      0.05461227	     -4.41356601	     26.23866967	     -8.76508490	     25.01388080	     57.37651534	     76.25511312	     38.60846109	    -18.33226033	     20.16839806	     55.47107491	     62.25651328
